<mxfile host="app.diagrams.net" modified="2022-04-29T16:12:11.043Z" agent="5.0 (Windows NT 10.0; Win64; x64) AppleWebKit/537.36 (KHTML, like Gecko) Chrome/100.0.4896.127 Safari/537.36" etag="lg5sC2dGmWdwqR7mqg1b" version="17.4.6" type="github" pages="2">
  <diagram id="C5RBs43oDa-KdzZeNtuy" name="Page-1">
    <mxGraphModel dx="1634" dy="5408" grid="1" gridSize="10" guides="1" tooltips="1" connect="1" arrows="1" fold="1" page="1" pageScale="1" pageWidth="3300" pageHeight="4681" background="none" math="0" shadow="0">
      <root>
        <mxCell id="WIyWlLk6GJQsqaUBKTNV-0" />
        <mxCell id="WIyWlLk6GJQsqaUBKTNV-1" parent="WIyWlLk6GJQsqaUBKTNV-0" />
        <mxCell id="OlA-J0i2iCB9OFH_qYKy-1" value="" style="group" vertex="1" connectable="0" parent="WIyWlLk6GJQsqaUBKTNV-1">
          <mxGeometry x="220" y="-1520" width="1920" height="1150" as="geometry" />
        </mxCell>
        <mxCell id="WIyWlLk6GJQsqaUBKTNV-3" value="User enters the website" style="rounded=1;whiteSpace=wrap;html=1;fontSize=12;glass=0;strokeWidth=1;shadow=0;" parent="OlA-J0i2iCB9OFH_qYKy-1" vertex="1">
          <mxGeometry y="303.00829875518673" width="110.23923444976081" height="38.174273858921154" as="geometry" />
        </mxCell>
        <mxCell id="WIyWlLk6GJQsqaUBKTNV-6" value="Logged in?" style="rhombus;whiteSpace=wrap;html=1;shadow=0;fontFamily=Helvetica;fontSize=12;align=center;strokeWidth=1;spacing=6;spacingTop=-4;" parent="OlA-J0i2iCB9OFH_qYKy-1" vertex="1">
          <mxGeometry x="9.186602870813399" y="396.05809128630705" width="91.86602870813398" height="76.34854771784231" as="geometry" />
        </mxCell>
        <mxCell id="WIyWlLk6GJQsqaUBKTNV-2" value="" style="rounded=0;html=1;jettySize=auto;orthogonalLoop=1;fontSize=11;endArrow=block;endFill=0;endSize=8;strokeWidth=1;shadow=0;labelBackgroundColor=none;edgeStyle=orthogonalEdgeStyle;" parent="OlA-J0i2iCB9OFH_qYKy-1" source="WIyWlLk6GJQsqaUBKTNV-3" target="WIyWlLk6GJQsqaUBKTNV-6" edge="1">
          <mxGeometry relative="1" as="geometry" />
        </mxCell>
        <mxCell id="WIyWlLk6GJQsqaUBKTNV-7" value="user isn&#39;t logged in" style="rounded=1;whiteSpace=wrap;html=1;fontSize=12;glass=0;strokeWidth=1;shadow=0;" parent="OlA-J0i2iCB9OFH_qYKy-1" vertex="1">
          <mxGeometry x="156.17224880382776" y="415.1452282157676" width="110.23923444976081" height="38.174273858921154" as="geometry" />
        </mxCell>
        <mxCell id="vPx18XES60b5-4TH0gW--132" value="" style="edgeStyle=orthogonalEdgeStyle;rounded=0;orthogonalLoop=1;jettySize=auto;html=1;fontSize=9;" parent="OlA-J0i2iCB9OFH_qYKy-1" source="WIyWlLk6GJQsqaUBKTNV-6" target="WIyWlLk6GJQsqaUBKTNV-7" edge="1">
          <mxGeometry relative="1" as="geometry" />
        </mxCell>
        <mxCell id="WIyWlLk6GJQsqaUBKTNV-10" value="&lt;font style=&quot;font-size: 11px&quot;&gt;User is logged in&lt;/font&gt;" style="rhombus;whiteSpace=wrap;html=1;shadow=0;fontFamily=Helvetica;fontSize=12;align=center;strokeWidth=1;spacing=6;spacingTop=-4;" parent="OlA-J0i2iCB9OFH_qYKy-1" vertex="1">
          <mxGeometry x="9.186602870813399" y="510.5809128630706" width="91.86602870813398" height="76.34854771784231" as="geometry" />
        </mxCell>
        <mxCell id="vPx18XES60b5-4TH0gW--133" value="" style="edgeStyle=orthogonalEdgeStyle;rounded=0;orthogonalLoop=1;jettySize=auto;html=1;fontSize=9;" parent="OlA-J0i2iCB9OFH_qYKy-1" source="WIyWlLk6GJQsqaUBKTNV-6" target="WIyWlLk6GJQsqaUBKTNV-10" edge="1">
          <mxGeometry relative="1" as="geometry" />
        </mxCell>
        <mxCell id="vPx18XES60b5-4TH0gW--7" value="Registered user?" style="rounded=1;whiteSpace=wrap;html=1;fontSize=12;glass=0;strokeWidth=1;shadow=0;" parent="OlA-J0i2iCB9OFH_qYKy-1" vertex="1">
          <mxGeometry x="321.53110047846906" y="415.1452282157676" width="128.61244019138755" height="38.174273858921154" as="geometry" />
        </mxCell>
        <mxCell id="vPx18XES60b5-4TH0gW--8" value="" style="edgeStyle=orthogonalEdgeStyle;rounded=0;orthogonalLoop=1;jettySize=auto;html=1;fontSize=11;" parent="OlA-J0i2iCB9OFH_qYKy-1" source="WIyWlLk6GJQsqaUBKTNV-7" target="vPx18XES60b5-4TH0gW--7" edge="1">
          <mxGeometry relative="1" as="geometry" />
        </mxCell>
        <mxCell id="vPx18XES60b5-4TH0gW--9" value="User is registered" style="rounded=1;whiteSpace=wrap;html=1;fontSize=12;glass=0;strokeWidth=1;shadow=0;" parent="OlA-J0i2iCB9OFH_qYKy-1" vertex="1">
          <mxGeometry x="431.7703349282298" y="300.62240663900417" width="110.23923444976081" height="38.174273858921154" as="geometry" />
        </mxCell>
        <mxCell id="vPx18XES60b5-4TH0gW--11" value="&lt;font style=&quot;font-size: 11px&quot;&gt;Does user remembers his password?&lt;/font&gt;" style="rounded=1;whiteSpace=wrap;html=1;fontSize=12;glass=0;strokeWidth=1;shadow=0;" parent="OlA-J0i2iCB9OFH_qYKy-1" vertex="1">
          <mxGeometry x="615.5023923444977" y="300.62240663900417" width="110.23923444976081" height="38.174273858921154" as="geometry" />
        </mxCell>
        <mxCell id="vPx18XES60b5-4TH0gW--12" value="" style="edgeStyle=orthogonalEdgeStyle;rounded=0;orthogonalLoop=1;jettySize=auto;html=1;fontSize=11;" parent="OlA-J0i2iCB9OFH_qYKy-1" source="vPx18XES60b5-4TH0gW--9" target="vPx18XES60b5-4TH0gW--11" edge="1">
          <mxGeometry relative="1" as="geometry">
            <Array as="points">
              <mxPoint x="606.3157894736846" y="319.70954356846465" />
              <mxPoint x="606.3157894736846" y="319.70954356846465" />
            </Array>
          </mxGeometry>
        </mxCell>
        <mxCell id="vPx18XES60b5-4TH0gW--13" value="&lt;font style=&quot;font-size: 11px&quot;&gt;User forgot his password&lt;/font&gt;" style="rounded=1;whiteSpace=wrap;html=1;fontSize=12;glass=0;strokeWidth=1;shadow=0;" parent="OlA-J0i2iCB9OFH_qYKy-1" vertex="1">
          <mxGeometry x="615.5023923444977" y="186.09958506224066" width="110.23923444976081" height="38.174273858921154" as="geometry" />
        </mxCell>
        <mxCell id="vPx18XES60b5-4TH0gW--14" value="" style="edgeStyle=orthogonalEdgeStyle;rounded=0;orthogonalLoop=1;jettySize=auto;html=1;fontSize=11;" parent="OlA-J0i2iCB9OFH_qYKy-1" source="vPx18XES60b5-4TH0gW--11" target="vPx18XES60b5-4TH0gW--13" edge="1">
          <mxGeometry relative="1" as="geometry" />
        </mxCell>
        <mxCell id="vPx18XES60b5-4TH0gW--15" value="&lt;span style=&quot;font-size: 11px&quot;&gt;Send a mail with new password&amp;nbsp;&lt;/span&gt;&lt;span style=&quot;font-size: 11px&quot;&gt;to the mail address&amp;nbsp;which is in the system&lt;/span&gt;" style="rounded=1;whiteSpace=wrap;html=1;fontSize=12;glass=0;strokeWidth=1;shadow=0;" parent="OlA-J0i2iCB9OFH_qYKy-1" vertex="1">
          <mxGeometry x="799.2344497607656" y="176.55601659751036" width="110.23923444976081" height="57.26141078838173" as="geometry" />
        </mxCell>
        <mxCell id="vPx18XES60b5-4TH0gW--16" value="" style="edgeStyle=orthogonalEdgeStyle;rounded=0;orthogonalLoop=1;jettySize=auto;html=1;fontSize=11;" parent="OlA-J0i2iCB9OFH_qYKy-1" source="vPx18XES60b5-4TH0gW--13" target="vPx18XES60b5-4TH0gW--15" edge="1">
          <mxGeometry relative="1" as="geometry" />
        </mxCell>
        <mxCell id="vPx18XES60b5-4TH0gW--17" value="&lt;span style=&quot;font-size: 11px&quot;&gt;The mail was sent&lt;/span&gt;" style="rounded=1;whiteSpace=wrap;html=1;fontSize=12;glass=0;strokeWidth=1;shadow=0;" parent="OlA-J0i2iCB9OFH_qYKy-1" vertex="1">
          <mxGeometry x="982.9665071770341" y="176.55601659751036" width="110.23923444976081" height="57.26141078838173" as="geometry" />
        </mxCell>
        <mxCell id="vPx18XES60b5-4TH0gW--18" value="" style="edgeStyle=orthogonalEdgeStyle;rounded=0;orthogonalLoop=1;jettySize=auto;html=1;fontSize=9;" parent="OlA-J0i2iCB9OFH_qYKy-1" source="vPx18XES60b5-4TH0gW--15" target="vPx18XES60b5-4TH0gW--17" edge="1">
          <mxGeometry relative="1" as="geometry" />
        </mxCell>
        <mxCell id="vPx18XES60b5-4TH0gW--21" value="&lt;font style=&quot;font-size: 11px&quot;&gt;The user remembers his password&lt;/font&gt;" style="rounded=1;whiteSpace=wrap;html=1;fontSize=12;glass=0;strokeWidth=1;shadow=0;" parent="OlA-J0i2iCB9OFH_qYKy-1" vertex="1">
          <mxGeometry x="799.2344497607656" y="300.62240663900417" width="110.23923444976081" height="38.174273858921154" as="geometry" />
        </mxCell>
        <mxCell id="vPx18XES60b5-4TH0gW--22" value="" style="edgeStyle=orthogonalEdgeStyle;rounded=0;orthogonalLoop=1;jettySize=auto;html=1;fontSize=9;" parent="OlA-J0i2iCB9OFH_qYKy-1" source="vPx18XES60b5-4TH0gW--11" target="vPx18XES60b5-4TH0gW--21" edge="1">
          <mxGeometry relative="1" as="geometry" />
        </mxCell>
        <mxCell id="vPx18XES60b5-4TH0gW--23" value="&lt;font style=&quot;font-size: 11px&quot;&gt;The user types in log in and password&lt;/font&gt;" style="rounded=1;whiteSpace=wrap;html=1;fontSize=12;glass=0;strokeWidth=1;shadow=0;" parent="OlA-J0i2iCB9OFH_qYKy-1" vertex="1">
          <mxGeometry x="982.9665071770341" y="300.62240663900417" width="110.23923444976081" height="38.174273858921154" as="geometry" />
        </mxCell>
        <mxCell id="vPx18XES60b5-4TH0gW--24" value="" style="edgeStyle=orthogonalEdgeStyle;rounded=0;orthogonalLoop=1;jettySize=auto;html=1;fontSize=9;" parent="OlA-J0i2iCB9OFH_qYKy-1" source="vPx18XES60b5-4TH0gW--21" target="vPx18XES60b5-4TH0gW--23" edge="1">
          <mxGeometry relative="1" as="geometry" />
        </mxCell>
        <mxCell id="vPx18XES60b5-4TH0gW--25" value="&lt;font style=&quot;font-size: 11px&quot;&gt;Data typed in&lt;/font&gt;" style="rounded=1;whiteSpace=wrap;html=1;fontSize=12;glass=0;strokeWidth=1;shadow=0;" parent="OlA-J0i2iCB9OFH_qYKy-1" vertex="1">
          <mxGeometry x="1166.6985645933014" y="300.62240663900417" width="110.23923444976081" height="38.174273858921154" as="geometry" />
        </mxCell>
        <mxCell id="vPx18XES60b5-4TH0gW--26" value="" style="edgeStyle=orthogonalEdgeStyle;rounded=0;orthogonalLoop=1;jettySize=auto;html=1;fontSize=9;" parent="OlA-J0i2iCB9OFH_qYKy-1" source="vPx18XES60b5-4TH0gW--23" target="vPx18XES60b5-4TH0gW--25" edge="1">
          <mxGeometry relative="1" as="geometry" />
        </mxCell>
        <mxCell id="vPx18XES60b5-4TH0gW--27" value="&lt;span style=&quot;font-size: 11px&quot;&gt;Data correct?&lt;/span&gt;" style="rounded=1;whiteSpace=wrap;html=1;fontSize=12;glass=0;strokeWidth=1;shadow=0;arcSize=14;" parent="OlA-J0i2iCB9OFH_qYKy-1" vertex="1">
          <mxGeometry x="1350.4306220095698" y="300.62240663900417" width="110.23923444976081" height="38.174273858921154" as="geometry" />
        </mxCell>
        <mxCell id="vPx18XES60b5-4TH0gW--28" value="" style="edgeStyle=orthogonalEdgeStyle;rounded=0;orthogonalLoop=1;jettySize=auto;html=1;fontSize=9;" parent="OlA-J0i2iCB9OFH_qYKy-1" source="vPx18XES60b5-4TH0gW--25" target="vPx18XES60b5-4TH0gW--27" edge="1">
          <mxGeometry relative="1" as="geometry" />
        </mxCell>
        <mxCell id="vPx18XES60b5-4TH0gW--37" value="" style="edgeStyle=orthogonalEdgeStyle;rounded=0;orthogonalLoop=1;jettySize=auto;html=1;fontSize=9;" parent="OlA-J0i2iCB9OFH_qYKy-1" target="vPx18XES60b5-4TH0gW--27" edge="1">
          <mxGeometry relative="1" as="geometry">
            <mxPoint x="1405.5502392344497" y="402.7385892116178" as="sourcePoint" />
          </mxGeometry>
        </mxCell>
        <mxCell id="vPx18XES60b5-4TH0gW--38" value="&lt;span style=&quot;font-size: 11px&quot;&gt;System&lt;/span&gt;" style="rounded=1;whiteSpace=wrap;html=1;fontSize=12;glass=0;strokeWidth=1;shadow=0;" parent="OlA-J0i2iCB9OFH_qYKy-1" vertex="1">
          <mxGeometry x="1350.4306220095698" y="186.09958506224066" width="110.23923444976081" height="38.174273858921154" as="geometry" />
        </mxCell>
        <mxCell id="vPx18XES60b5-4TH0gW--39" value="" style="edgeStyle=orthogonalEdgeStyle;rounded=0;orthogonalLoop=1;jettySize=auto;html=1;fontSize=9;" parent="OlA-J0i2iCB9OFH_qYKy-1" source="vPx18XES60b5-4TH0gW--27" target="vPx18XES60b5-4TH0gW--38" edge="1">
          <mxGeometry relative="1" as="geometry" />
        </mxCell>
        <mxCell id="vPx18XES60b5-4TH0gW--55" value="" style="edgeStyle=orthogonalEdgeStyle;rounded=0;orthogonalLoop=1;jettySize=auto;html=1;fontSize=9;exitX=1;exitY=0.5;exitDx=0;exitDy=0;exitPerimeter=0;" parent="OlA-J0i2iCB9OFH_qYKy-1" source="vPx18XES60b5-4TH0gW--48" edge="1">
          <mxGeometry relative="1" as="geometry">
            <mxPoint x="1543.3492822966514" y="405.60165975103735" as="targetPoint" />
            <Array as="points">
              <mxPoint x="1543.3492822966514" y="348.3402489626556" />
              <mxPoint x="1543.3492822966514" y="348.3402489626556" />
            </Array>
          </mxGeometry>
        </mxCell>
        <mxCell id="vPx18XES60b5-4TH0gW--48" value="" style="line;strokeWidth=2;html=1;labelBackgroundColor=#FFFFFF;fontSize=9;" parent="OlA-J0i2iCB9OFH_qYKy-1" vertex="1">
          <mxGeometry x="1460.66985645933" y="314.9377593360996" width="82.67942583732058" height="14.315352697095433" as="geometry" />
        </mxCell>
        <mxCell id="vPx18XES60b5-4TH0gW--53" value="Database" style="strokeWidth=2;html=1;shape=mxgraph.flowchart.database;whiteSpace=wrap;labelBackgroundColor=#FFFFFF;fontSize=9;" parent="OlA-J0i2iCB9OFH_qYKy-1" vertex="1">
          <mxGeometry x="1377.9904306220096" y="405.60165975103735" width="55.11961722488041" height="57.26141078838173" as="geometry" />
        </mxCell>
        <mxCell id="vPx18XES60b5-4TH0gW--59" value="&lt;span style=&quot;font-size: 11px&quot;&gt;Data is not correct&lt;/span&gt;" style="rounded=1;whiteSpace=wrap;html=1;fontSize=12;glass=0;strokeWidth=1;shadow=0;arcSize=14;" parent="OlA-J0i2iCB9OFH_qYKy-1" vertex="1">
          <mxGeometry x="1497.4162679425842" y="405.60165975103735" width="110.23923444976081" height="38.174273858921154" as="geometry" />
        </mxCell>
        <mxCell id="vPx18XES60b5-4TH0gW--63" value="Data is correct" style="whiteSpace=wrap;html=1;fontSize=9;verticalAlign=top;strokeWidth=2;labelBackgroundColor=#FFFFFF;spacingTop=8;" parent="OlA-J0i2iCB9OFH_qYKy-1" vertex="1">
          <mxGeometry x="1488.2296650717706" y="224.27385892116183" width="110.23923444976081" height="35.78838174273859" as="geometry" />
        </mxCell>
        <mxCell id="vPx18XES60b5-4TH0gW--64" value="" style="edgeStyle=orthogonalEdgeStyle;rounded=0;orthogonalLoop=1;jettySize=auto;html=1;fontSize=9;exitX=1;exitY=0.5;exitDx=0;exitDy=0;exitPerimeter=0;" parent="OlA-J0i2iCB9OFH_qYKy-1" source="vPx18XES60b5-4TH0gW--48" target="vPx18XES60b5-4TH0gW--63" edge="1">
          <mxGeometry relative="1" as="geometry">
            <Array as="points">
              <mxPoint x="1543.3492822966514" y="310.16597510373447" />
              <mxPoint x="1543.3492822966514" y="310.16597510373447" />
            </Array>
          </mxGeometry>
        </mxCell>
        <mxCell id="vPx18XES60b5-4TH0gW--66" value="Complete logging in" style="whiteSpace=wrap;html=1;fontSize=9;verticalAlign=top;strokeWidth=2;labelBackgroundColor=#FFFFFF;spacingTop=8;" parent="OlA-J0i2iCB9OFH_qYKy-1" vertex="1">
          <mxGeometry x="1488.2296650717706" y="112.13692946058092" width="110.23923444976081" height="35.78838174273859" as="geometry" />
        </mxCell>
        <mxCell id="vPx18XES60b5-4TH0gW--67" value="" style="edgeStyle=orthogonalEdgeStyle;rounded=0;orthogonalLoop=1;jettySize=auto;html=1;fontSize=9;" parent="OlA-J0i2iCB9OFH_qYKy-1" source="vPx18XES60b5-4TH0gW--63" target="vPx18XES60b5-4TH0gW--66" edge="1">
          <mxGeometry relative="1" as="geometry" />
        </mxCell>
        <mxCell id="vPx18XES60b5-4TH0gW--68" value="The user is logged in" style="whiteSpace=wrap;html=1;fontSize=9;verticalAlign=top;strokeWidth=2;labelBackgroundColor=#FFFFFF;spacingTop=8;" parent="OlA-J0i2iCB9OFH_qYKy-1" vertex="1">
          <mxGeometry x="1488.2296650717706" width="110.23923444976081" height="35.78838174273859" as="geometry" />
        </mxCell>
        <mxCell id="vPx18XES60b5-4TH0gW--69" value="" style="edgeStyle=orthogonalEdgeStyle;rounded=0;orthogonalLoop=1;jettySize=auto;html=1;fontSize=9;" parent="OlA-J0i2iCB9OFH_qYKy-1" source="vPx18XES60b5-4TH0gW--66" target="vPx18XES60b5-4TH0gW--68" edge="1">
          <mxGeometry relative="1" as="geometry" />
        </mxCell>
        <mxCell id="vPx18XES60b5-4TH0gW--73" value="" style="endArrow=none;dashed=1;html=1;rounded=0;fontSize=9;" parent="OlA-J0i2iCB9OFH_qYKy-1" edge="1">
          <mxGeometry width="50" height="50" relative="1" as="geometry">
            <mxPoint x="1543.3492822966514" y="510.5809128630706" as="sourcePoint" />
            <mxPoint x="1543.3492822966514" y="472.4066390041494" as="targetPoint" />
            <Array as="points">
              <mxPoint x="1543.3492822966514" y="443.77593360995843" />
            </Array>
          </mxGeometry>
        </mxCell>
        <mxCell id="vPx18XES60b5-4TH0gW--74" value="" style="endArrow=none;dashed=1;html=1;rounded=0;fontSize=9;" parent="OlA-J0i2iCB9OFH_qYKy-1" edge="1">
          <mxGeometry width="50" height="50" relative="1" as="geometry">
            <mxPoint x="762.488038277512" y="510.5809128630706" as="sourcePoint" />
            <mxPoint x="1543.3492822966514" y="510.5809128630706" as="targetPoint" />
          </mxGeometry>
        </mxCell>
        <mxCell id="vPx18XES60b5-4TH0gW--75" value="" style="endArrow=none;dashed=1;html=1;rounded=0;fontSize=9;" parent="OlA-J0i2iCB9OFH_qYKy-1" edge="1">
          <mxGeometry width="50" height="50" relative="1" as="geometry">
            <mxPoint x="762.488038277512" y="510.5809128630706" as="sourcePoint" />
            <mxPoint x="762.488038277512" y="510.5809128630706" as="targetPoint" />
            <Array as="points">
              <mxPoint x="670.6220095693783" y="510.5809128630706" />
            </Array>
          </mxGeometry>
        </mxCell>
        <mxCell id="vPx18XES60b5-4TH0gW--76" value="" style="endArrow=none;dashed=1;html=1;rounded=0;fontSize=9;entryX=0.5;entryY=1;entryDx=0;entryDy=0;" parent="OlA-J0i2iCB9OFH_qYKy-1" target="vPx18XES60b5-4TH0gW--11" edge="1">
          <mxGeometry width="50" height="50" relative="1" as="geometry">
            <mxPoint x="670.6220095693783" y="510.5809128630706" as="sourcePoint" />
            <mxPoint x="647.6555023923448" y="348.3402489626556" as="targetPoint" />
          </mxGeometry>
        </mxCell>
        <mxCell id="vPx18XES60b5-4TH0gW--77" value="User is not registered" style="rounded=1;whiteSpace=wrap;html=1;fontSize=12;glass=0;strokeWidth=1;shadow=0;" parent="OlA-J0i2iCB9OFH_qYKy-1" vertex="1">
          <mxGeometry x="431.7703349282298" y="529.6680497925313" width="110.23923444976081" height="38.174273858921154" as="geometry" />
        </mxCell>
        <mxCell id="vPx18XES60b5-4TH0gW--82" value="" style="edgeStyle=orthogonalEdgeStyle;rounded=0;orthogonalLoop=1;jettySize=auto;html=1;fontSize=9;" parent="OlA-J0i2iCB9OFH_qYKy-1" target="vPx18XES60b5-4TH0gW--81" edge="1">
          <mxGeometry relative="1" as="geometry">
            <mxPoint x="670.6220095693783" y="558.298755186722" as="sourcePoint" />
          </mxGeometry>
        </mxCell>
        <mxCell id="vPx18XES60b5-4TH0gW--81" value="User types in needed data" style="rounded=1;whiteSpace=wrap;html=1;fontSize=12;glass=0;strokeWidth=1;shadow=0;" parent="OlA-J0i2iCB9OFH_qYKy-1" vertex="1">
          <mxGeometry x="615.5023923444977" y="644.1908713692945" width="110.23923444976081" height="38.174273858921154" as="geometry" />
        </mxCell>
        <mxCell id="vPx18XES60b5-4TH0gW--83" value="" style="endArrow=none;dashed=1;html=1;rounded=0;fontSize=9;" parent="OlA-J0i2iCB9OFH_qYKy-1" edge="1">
          <mxGeometry width="50" height="50" relative="1" as="geometry">
            <mxPoint x="734.9282296650719" y="663.2780082987553" as="sourcePoint" />
            <mxPoint x="790.0478468899524" y="663.2780082987553" as="targetPoint" />
            <Array as="points">
              <mxPoint x="762.488038277512" y="663.2780082987553" />
            </Array>
          </mxGeometry>
        </mxCell>
        <mxCell id="vPx18XES60b5-4TH0gW--84" value="" style="endArrow=none;dashed=1;html=1;rounded=0;fontSize=9;" parent="OlA-J0i2iCB9OFH_qYKy-1" edge="1">
          <mxGeometry width="50" height="50" relative="1" as="geometry">
            <mxPoint x="790.0478468899524" y="720.5394190871369" as="sourcePoint" />
            <mxPoint x="790.0478468899524" y="663.2780082987553" as="targetPoint" />
          </mxGeometry>
        </mxCell>
        <mxCell id="vPx18XES60b5-4TH0gW--85" value="Data typed in" style="shape=hexagon;perimeter=hexagonPerimeter2;whiteSpace=wrap;html=1;fixedSize=1;labelBackgroundColor=#FFFFFF;fontSize=9;" parent="OlA-J0i2iCB9OFH_qYKy-1" vertex="1">
          <mxGeometry x="734.9282296650719" y="720.5394190871369" width="110.23923444976081" height="47.717842323651446" as="geometry" />
        </mxCell>
        <mxCell id="vPx18XES60b5-4TH0gW--86" value="Data correct?" style="shape=process;whiteSpace=wrap;html=1;backgroundOutline=1;fontSize=9;labelBackgroundColor=#FFFFFF;" parent="OlA-J0i2iCB9OFH_qYKy-1" vertex="1">
          <mxGeometry x="748.7081339712921" y="844.6058091286307" width="82.67942583732058" height="57.26141078838173" as="geometry" />
        </mxCell>
        <mxCell id="vPx18XES60b5-4TH0gW--87" value="" style="edgeStyle=orthogonalEdgeStyle;rounded=0;orthogonalLoop=1;jettySize=auto;html=1;fontSize=9;" parent="OlA-J0i2iCB9OFH_qYKy-1" source="vPx18XES60b5-4TH0gW--85" target="vPx18XES60b5-4TH0gW--86" edge="1">
          <mxGeometry relative="1" as="geometry" />
        </mxCell>
        <mxCell id="vPx18XES60b5-4TH0gW--88" value="Data correct?" style="rounded=1;whiteSpace=wrap;html=1;labelBackgroundColor=#FFFFFF;fontSize=9;" parent="OlA-J0i2iCB9OFH_qYKy-1" vertex="1">
          <mxGeometry x="748.7081339712921" y="844.6058091286307" width="82.67942583732058" height="57.26141078838173" as="geometry" />
        </mxCell>
        <mxCell id="vPx18XES60b5-4TH0gW--90" value="" style="edgeStyle=orthogonalEdgeStyle;rounded=0;orthogonalLoop=1;jettySize=auto;html=1;fontSize=9;" parent="OlA-J0i2iCB9OFH_qYKy-1" source="vPx18XES60b5-4TH0gW--89" target="vPx18XES60b5-4TH0gW--88" edge="1">
          <mxGeometry relative="1" as="geometry" />
        </mxCell>
        <mxCell id="vPx18XES60b5-4TH0gW--89" value="System" style="shape=process;whiteSpace=wrap;html=1;backgroundOutline=1;labelBackgroundColor=#FFFFFF;fontSize=9;" parent="OlA-J0i2iCB9OFH_qYKy-1" vertex="1">
          <mxGeometry x="597.1291866028712" y="844.6058091286307" width="110.23923444976081" height="57.26141078838173" as="geometry" />
        </mxCell>
        <mxCell id="vPx18XES60b5-4TH0gW--92" value="" style="edgeStyle=orthogonalEdgeStyle;rounded=0;orthogonalLoop=1;jettySize=auto;html=1;fontSize=9;" parent="OlA-J0i2iCB9OFH_qYKy-1" source="vPx18XES60b5-4TH0gW--91" target="vPx18XES60b5-4TH0gW--88" edge="1">
          <mxGeometry relative="1" as="geometry" />
        </mxCell>
        <mxCell id="vPx18XES60b5-4TH0gW--91" value="Database" style="strokeWidth=2;html=1;shape=mxgraph.flowchart.database;whiteSpace=wrap;labelBackgroundColor=#FFFFFF;fontSize=9;" parent="OlA-J0i2iCB9OFH_qYKy-1" vertex="1">
          <mxGeometry x="762.488038277512" y="940.0414937759336" width="55.11961722488041" height="57.26141078838173" as="geometry" />
        </mxCell>
        <mxCell id="vPx18XES60b5-4TH0gW--100" value="" style="edgeStyle=orthogonalEdgeStyle;rounded=0;orthogonalLoop=1;jettySize=auto;html=1;fontSize=9;" parent="OlA-J0i2iCB9OFH_qYKy-1" source="vPx18XES60b5-4TH0gW--93" edge="1">
          <mxGeometry relative="1" as="geometry">
            <mxPoint x="946.2200956937799" y="787.344398340249" as="targetPoint" />
          </mxGeometry>
        </mxCell>
        <mxCell id="vPx18XES60b5-4TH0gW--93" value="" style="shape=waypoint;sketch=0;size=6;pointerEvents=1;points=[];fillColor=default;resizable=0;rotatable=0;perimeter=centerPerimeter;snapToPoint=1;fontSize=9;rounded=1;labelBackgroundColor=#FFFFFF;" parent="OlA-J0i2iCB9OFH_qYKy-1" vertex="1">
          <mxGeometry x="927.8468899521536" y="854.1493775933609" width="40" height="40" as="geometry" />
        </mxCell>
        <mxCell id="vPx18XES60b5-4TH0gW--94" value="" style="edgeStyle=orthogonalEdgeStyle;rounded=0;orthogonalLoop=1;jettySize=auto;html=1;fontSize=9;" parent="OlA-J0i2iCB9OFH_qYKy-1" source="vPx18XES60b5-4TH0gW--88" target="vPx18XES60b5-4TH0gW--93" edge="1">
          <mxGeometry relative="1" as="geometry" />
        </mxCell>
        <mxCell id="vPx18XES60b5-4TH0gW--97" value="Data&amp;nbsp; is correct" style="rounded=0;whiteSpace=wrap;html=1;labelBackgroundColor=#FFFFFF;fontSize=9;" parent="OlA-J0i2iCB9OFH_qYKy-1" vertex="1">
          <mxGeometry x="891.1004784689" y="930.4979253112033" width="110.23923444976081" height="38.174273858921154" as="geometry" />
        </mxCell>
        <mxCell id="vPx18XES60b5-4TH0gW--98" value="" style="edgeStyle=orthogonalEdgeStyle;rounded=0;orthogonalLoop=1;jettySize=auto;html=1;fontSize=9;" parent="OlA-J0i2iCB9OFH_qYKy-1" source="vPx18XES60b5-4TH0gW--93" target="vPx18XES60b5-4TH0gW--97" edge="1">
          <mxGeometry relative="1" as="geometry" />
        </mxCell>
        <mxCell id="vPx18XES60b5-4TH0gW--101" value="Data is not correct" style="whiteSpace=wrap;html=1;fontSize=9;sketch=0;rounded=1;labelBackgroundColor=#FFFFFF;" parent="OlA-J0i2iCB9OFH_qYKy-1" vertex="1">
          <mxGeometry x="891.1004784689" y="749.1701244813277" width="110.23923444976081" height="38.174273858921154" as="geometry" />
        </mxCell>
        <mxCell id="vPx18XES60b5-4TH0gW--102" value="" style="endArrow=none;dashed=1;html=1;rounded=0;fontSize=9;" parent="OlA-J0i2iCB9OFH_qYKy-1" edge="1">
          <mxGeometry width="50" height="50" relative="1" as="geometry">
            <mxPoint x="946.2200956937799" y="749.1701244813277" as="sourcePoint" />
            <mxPoint x="946.2200956937799" y="558.298755186722" as="targetPoint" />
          </mxGeometry>
        </mxCell>
        <mxCell id="vPx18XES60b5-4TH0gW--103" value="" style="endArrow=none;dashed=1;html=1;rounded=0;fontSize=9;" parent="OlA-J0i2iCB9OFH_qYKy-1" edge="1">
          <mxGeometry width="50" height="50" relative="1" as="geometry">
            <mxPoint x="670.6220095693783" y="558.298755186722" as="sourcePoint" />
            <mxPoint x="946.2200956937799" y="558.298755186722" as="targetPoint" />
          </mxGeometry>
        </mxCell>
        <mxCell id="vPx18XES60b5-4TH0gW--104" value="Data&amp;nbsp; is correct" style="rounded=0;whiteSpace=wrap;html=1;labelBackgroundColor=#FFFFFF;fontSize=9;" parent="OlA-J0i2iCB9OFH_qYKy-1" vertex="1">
          <mxGeometry x="1074.8325358851682" y="930.4979253112033" width="110.23923444976081" height="38.174273858921154" as="geometry" />
        </mxCell>
        <mxCell id="vPx18XES60b5-4TH0gW--105" value="" style="edgeStyle=orthogonalEdgeStyle;rounded=0;orthogonalLoop=1;jettySize=auto;html=1;fontSize=9;" parent="OlA-J0i2iCB9OFH_qYKy-1" source="vPx18XES60b5-4TH0gW--97" target="vPx18XES60b5-4TH0gW--104" edge="1">
          <mxGeometry relative="1" as="geometry" />
        </mxCell>
        <mxCell id="vPx18XES60b5-4TH0gW--106" value="" style="shape=waypoint;sketch=0;size=6;pointerEvents=1;points=[];fillColor=default;resizable=0;rotatable=0;perimeter=centerPerimeter;snapToPoint=1;fontSize=9;rounded=0;labelBackgroundColor=#FFFFFF;" parent="OlA-J0i2iCB9OFH_qYKy-1" vertex="1">
          <mxGeometry x="1295.3110047846897" y="930.4979253112033" width="40" height="40" as="geometry" />
        </mxCell>
        <mxCell id="vPx18XES60b5-4TH0gW--107" value="" style="edgeStyle=orthogonalEdgeStyle;rounded=0;orthogonalLoop=1;jettySize=auto;html=1;fontSize=9;" parent="OlA-J0i2iCB9OFH_qYKy-1" source="vPx18XES60b5-4TH0gW--104" target="vPx18XES60b5-4TH0gW--106" edge="1">
          <mxGeometry relative="1" as="geometry" />
        </mxCell>
        <mxCell id="vPx18XES60b5-4TH0gW--110" value="Sent activation mail" style="rounded=0;whiteSpace=wrap;html=1;labelBackgroundColor=#FFFFFF;fontSize=9;" parent="OlA-J0i2iCB9OFH_qYKy-1" vertex="1">
          <mxGeometry x="1258.5645933014357" y="1006.8464730290456" width="110.23923444976081" height="38.174273858921154" as="geometry" />
        </mxCell>
        <mxCell id="vPx18XES60b5-4TH0gW--111" value="" style="edgeStyle=orthogonalEdgeStyle;rounded=0;orthogonalLoop=1;jettySize=auto;html=1;fontSize=9;" parent="OlA-J0i2iCB9OFH_qYKy-1" source="vPx18XES60b5-4TH0gW--106" target="vPx18XES60b5-4TH0gW--110" edge="1">
          <mxGeometry relative="1" as="geometry" />
        </mxCell>
        <mxCell id="vPx18XES60b5-4TH0gW--112" value="Activation mail sent" style="shape=trapezoid;perimeter=trapezoidPerimeter;whiteSpace=wrap;html=1;fixedSize=1;fontSize=9;rounded=0;labelBackgroundColor=#FFFFFF;" parent="OlA-J0i2iCB9OFH_qYKy-1" vertex="1">
          <mxGeometry x="1442.296650717704" y="997.3029045643153" width="110.23923444976081" height="57.26141078838173" as="geometry" />
        </mxCell>
        <mxCell id="vPx18XES60b5-4TH0gW--113" value="" style="edgeStyle=orthogonalEdgeStyle;rounded=0;orthogonalLoop=1;jettySize=auto;html=1;fontSize=9;" parent="OlA-J0i2iCB9OFH_qYKy-1" source="vPx18XES60b5-4TH0gW--110" target="vPx18XES60b5-4TH0gW--112" edge="1">
          <mxGeometry relative="1" as="geometry" />
        </mxCell>
        <mxCell id="vPx18XES60b5-4TH0gW--116" value="User activates account" style="rounded=0;whiteSpace=wrap;html=1;fontSize=9;labelBackgroundColor=#FFFFFF;" parent="OlA-J0i2iCB9OFH_qYKy-1" vertex="1">
          <mxGeometry x="1626.0287081339718" y="997.3029045643153" width="110.23923444976081" height="57.26141078838173" as="geometry" />
        </mxCell>
        <mxCell id="vPx18XES60b5-4TH0gW--117" value="" style="edgeStyle=orthogonalEdgeStyle;rounded=0;orthogonalLoop=1;jettySize=auto;html=1;fontSize=9;" parent="OlA-J0i2iCB9OFH_qYKy-1" source="vPx18XES60b5-4TH0gW--112" target="vPx18XES60b5-4TH0gW--116" edge="1">
          <mxGeometry relative="1" as="geometry" />
        </mxCell>
        <mxCell id="vPx18XES60b5-4TH0gW--118" value="The acount is activated" style="shape=trapezoid;perimeter=trapezoidPerimeter;whiteSpace=wrap;html=1;fixedSize=1;fontSize=9;rounded=0;labelBackgroundColor=#FFFFFF;" parent="OlA-J0i2iCB9OFH_qYKy-1" vertex="1">
          <mxGeometry x="1809.7607655502395" y="997.3029045643153" width="110.23923444976081" height="57.26141078838173" as="geometry" />
        </mxCell>
        <mxCell id="vPx18XES60b5-4TH0gW--119" value="" style="edgeStyle=orthogonalEdgeStyle;rounded=0;orthogonalLoop=1;jettySize=auto;html=1;fontSize=9;" parent="OlA-J0i2iCB9OFH_qYKy-1" source="vPx18XES60b5-4TH0gW--116" target="vPx18XES60b5-4TH0gW--118" edge="1">
          <mxGeometry relative="1" as="geometry" />
        </mxCell>
        <mxCell id="vPx18XES60b5-4TH0gW--122" value="Write&amp;nbsp; account data into&amp;nbsp;&lt;br&gt;the database" style="whiteSpace=wrap;html=1;fontSize=9;sketch=0;rounded=0;labelBackgroundColor=#FFFFFF;" parent="OlA-J0i2iCB9OFH_qYKy-1" vertex="1">
          <mxGeometry x="1258.5645933014357" y="806.4315352697097" width="110.23923444976081" height="57.26141078838173" as="geometry" />
        </mxCell>
        <mxCell id="vPx18XES60b5-4TH0gW--123" value="" style="edgeStyle=orthogonalEdgeStyle;rounded=0;orthogonalLoop=1;jettySize=auto;html=1;fontSize=9;" parent="OlA-J0i2iCB9OFH_qYKy-1" source="vPx18XES60b5-4TH0gW--106" target="vPx18XES60b5-4TH0gW--122" edge="1">
          <mxGeometry relative="1" as="geometry" />
        </mxCell>
        <mxCell id="vPx18XES60b5-4TH0gW--124" value="Database" style="strokeWidth=2;html=1;shape=mxgraph.flowchart.database;whiteSpace=wrap;labelBackgroundColor=#FFFFFF;fontSize=9;" parent="OlA-J0i2iCB9OFH_qYKy-1" vertex="1">
          <mxGeometry x="1286.1244019138762" y="701.4522821576762" width="55.11961722488041" height="57.26141078838173" as="geometry" />
        </mxCell>
        <mxCell id="vPx18XES60b5-4TH0gW--125" value="" style="edgeStyle=orthogonalEdgeStyle;rounded=0;orthogonalLoop=1;jettySize=auto;html=1;fontSize=9;" parent="OlA-J0i2iCB9OFH_qYKy-1" source="vPx18XES60b5-4TH0gW--122" target="vPx18XES60b5-4TH0gW--124" edge="1">
          <mxGeometry relative="1" as="geometry" />
        </mxCell>
        <mxCell id="vPx18XES60b5-4TH0gW--126" value="The data was written&amp;nbsp;&lt;br&gt;into the database" style="whiteSpace=wrap;html=1;fontSize=9;sketch=0;rounded=0;labelBackgroundColor=#FFFFFF;" parent="OlA-J0i2iCB9OFH_qYKy-1" vertex="1">
          <mxGeometry x="1442.296650717704" y="806.4315352697097" width="110.23923444976081" height="57.26141078838173" as="geometry" />
        </mxCell>
        <mxCell id="vPx18XES60b5-4TH0gW--127" value="" style="edgeStyle=orthogonalEdgeStyle;rounded=0;orthogonalLoop=1;jettySize=auto;html=1;fontSize=9;" parent="OlA-J0i2iCB9OFH_qYKy-1" source="vPx18XES60b5-4TH0gW--122" target="vPx18XES60b5-4TH0gW--126" edge="1">
          <mxGeometry relative="1" as="geometry" />
        </mxCell>
        <mxCell id="vPx18XES60b5-4TH0gW--128" value="" style="endArrow=none;dashed=1;html=1;rounded=0;fontSize=9;" parent="OlA-J0i2iCB9OFH_qYKy-1" edge="1">
          <mxGeometry width="50" height="50" relative="1" as="geometry">
            <mxPoint x="1028.8995215311004" y="176.55601659751036" as="sourcePoint" />
            <mxPoint x="1028.8995215311004" y="119.29460580912864" as="targetPoint" />
          </mxGeometry>
        </mxCell>
        <mxCell id="vPx18XES60b5-4TH0gW--129" value="" style="endArrow=none;dashed=1;html=1;rounded=0;fontSize=9;" parent="OlA-J0i2iCB9OFH_qYKy-1" edge="1">
          <mxGeometry width="50" height="50" relative="1" as="geometry">
            <mxPoint x="385.83732057416285" y="119.29460580912864" as="sourcePoint" />
            <mxPoint x="1028.8995215311004" y="119.29460580912864" as="targetPoint" />
          </mxGeometry>
        </mxCell>
        <mxCell id="vPx18XES60b5-4TH0gW--137" value="" style="edgeStyle=orthogonalEdgeStyle;rounded=0;orthogonalLoop=1;jettySize=auto;html=1;fontSize=9;" parent="OlA-J0i2iCB9OFH_qYKy-1" source="vPx18XES60b5-4TH0gW--135" target="vPx18XES60b5-4TH0gW--9" edge="1">
          <mxGeometry relative="1" as="geometry" />
        </mxCell>
        <mxCell id="vPx18XES60b5-4TH0gW--138" value="" style="edgeStyle=orthogonalEdgeStyle;rounded=0;orthogonalLoop=1;jettySize=auto;html=1;fontSize=9;" parent="OlA-J0i2iCB9OFH_qYKy-1" source="vPx18XES60b5-4TH0gW--135" target="vPx18XES60b5-4TH0gW--77" edge="1">
          <mxGeometry relative="1" as="geometry" />
        </mxCell>
        <mxCell id="vPx18XES60b5-4TH0gW--135" value="" style="shape=waypoint;sketch=0;size=6;pointerEvents=1;points=[];fillColor=default;resizable=0;rotatable=0;perimeter=centerPerimeter;snapToPoint=1;rounded=1;glass=0;strokeWidth=1;shadow=0;" parent="OlA-J0i2iCB9OFH_qYKy-1" vertex="1">
          <mxGeometry x="468.5167464114833" y="415.1452282157676" width="40" height="40" as="geometry" />
        </mxCell>
        <mxCell id="vPx18XES60b5-4TH0gW--136" value="" style="edgeStyle=orthogonalEdgeStyle;rounded=0;orthogonalLoop=1;jettySize=auto;html=1;fontSize=9;" parent="OlA-J0i2iCB9OFH_qYKy-1" source="vPx18XES60b5-4TH0gW--7" target="vPx18XES60b5-4TH0gW--135" edge="1">
          <mxGeometry relative="1" as="geometry" />
        </mxCell>
        <mxCell id="vPx18XES60b5-4TH0gW--139" value="" style="endArrow=none;dashed=1;html=1;rounded=0;fontSize=9;exitX=0.5;exitY=0;exitDx=0;exitDy=0;" parent="OlA-J0i2iCB9OFH_qYKy-1" source="vPx18XES60b5-4TH0gW--7" edge="1">
          <mxGeometry width="50" height="50" relative="1" as="geometry">
            <mxPoint x="385.83732057416285" y="405.60165975103735" as="sourcePoint" />
            <mxPoint x="385.83732057416285" y="119.29460580912864" as="targetPoint" />
          </mxGeometry>
        </mxCell>
        <mxCell id="vPx18XES60b5-4TH0gW--142" value="" style="endArrow=none;dashed=1;html=1;rounded=0;fontSize=9;" parent="OlA-J0i2iCB9OFH_qYKy-1" edge="1">
          <mxGeometry width="50" height="50" relative="1" as="geometry">
            <mxPoint x="1874.0669856459333" y="1150" as="sourcePoint" />
            <mxPoint x="1874.0669856459333" y="1054.5643153526971" as="targetPoint" />
          </mxGeometry>
        </mxCell>
        <mxCell id="vPx18XES60b5-4TH0gW--143" value="" style="endArrow=none;dashed=1;html=1;rounded=0;fontSize=9;" parent="OlA-J0i2iCB9OFH_qYKy-1" edge="1">
          <mxGeometry width="50" height="50" relative="1" as="geometry">
            <mxPoint x="395.0239234449762" y="1150" as="sourcePoint" />
            <mxPoint x="1874.0669856459333" y="1150" as="targetPoint" />
          </mxGeometry>
        </mxCell>
        <mxCell id="vPx18XES60b5-4TH0gW--144" value="" style="endArrow=none;dashed=1;html=1;rounded=0;fontSize=9;entryX=0.5;entryY=1;entryDx=0;entryDy=0;" parent="OlA-J0i2iCB9OFH_qYKy-1" target="vPx18XES60b5-4TH0gW--7" edge="1">
          <mxGeometry width="50" height="50" relative="1" as="geometry">
            <mxPoint x="385.83732057416285" y="1150" as="sourcePoint" />
            <mxPoint x="358.2775119617226" y="558.298755186722" as="targetPoint" />
            <Array as="points">
              <mxPoint x="385.83732057416285" y="1054.5643153526971" />
              <mxPoint x="385.83732057416285" y="949.5850622406639" />
              <mxPoint x="385.83732057416285" y="739.6265560165975" />
              <mxPoint x="385.83732057416285" y="701.4522821576762" />
              <mxPoint x="385.83732057416285" y="615.5601659751037" />
            </Array>
          </mxGeometry>
        </mxCell>
        <mxCell id="vPx18XES60b5-4TH0gW--146" value="" style="endArrow=none;html=1;rounded=0;fontSize=9;" parent="OlA-J0i2iCB9OFH_qYKy-1" edge="1">
          <mxGeometry width="50" height="50" relative="1" as="geometry">
            <mxPoint x="542.0095693779905" y="558.298755186722" as="sourcePoint" />
            <mxPoint x="670.6220095693783" y="558.298755186722" as="targetPoint" />
          </mxGeometry>
        </mxCell>
      </root>
    </mxGraphModel>
  </diagram>
  <diagram id="EoMMVEaabfms8qfUswNK" name="Page-2">
    <mxGraphModel dx="1250" dy="489" grid="1" gridSize="10" guides="1" tooltips="1" connect="1" arrows="1" fold="1" page="1" pageScale="1" pageWidth="2339" pageHeight="3300" math="0" shadow="0">
      <root>
        <mxCell id="0" />
        <mxCell id="1" parent="0" />
      </root>
    </mxGraphModel>
  </diagram>
</mxfile>
